<?xml version="1.0" encoding="utf-8"?>
<!-- Generator: Adobe Illustrator 24.1.2, SVG Export Plug-In . SVG Version: 6.00 Build 0)  -->
<svg version="1.1" xmlns="http://www.w3.org/2000/svg" xmlns:xlink="http://www.w3.org/1999/xlink" x="0px" y="0px"
	 viewBox="0 0 921 100" style="enable-background:new 0 0 921 100;" xml:space="preserve">
<style type="text/css">
	.st0{fill:#1E2838;}
	.st1{fill:#44CA6A;}
	.st2{fill:#51C5F3;}
</style>
<g id="Icon">
	<g>
		<rect x="37.62" y="45.29" class="st0" width="18.82" height="9.41"/>
		<rect x="37.62" y="23.51" class="st0" width="28.22" height="9.41"/>
		<rect x="37.62" y="67.07" class="st0" width="56.46" height="9.41"/>
		<polygon class="st1" points="94.08,0 94.08,23.51 117.59,23.51 		"/>
		<polygon class="st1" points="84.67,0 37.62,0 37.62,23.51 65.84,23.51 65.84,32.93 37.62,32.93 37.62,45.29 56.44,45.29 
			56.44,54.71 37.62,54.71 37.62,67.07 94.08,67.07 94.08,76.49 37.62,76.49 37.62,100 117.59,100 117.59,32.93 84.67,32.93 		"/>
		<rect x="18.81" y="23.51" class="st2" width="18.81" height="9.41"/>
		<rect y="45.29" class="st2" width="37.62" height="9.41"/>
		<rect x="9.41" y="67.07" class="st2" width="28.21" height="9.41"/>
	</g>
</g>
<g id="Text">
	<g>
		<path class="st0" d="M153.79,76.49V23.51h8.7v52.98H153.79z"/>
		<path class="st0" d="M193.98,37.67c4.39,0,7.91,1.4,10.56,4.2c2.65,2.8,3.97,6.6,3.97,11.39v23.23h-8.18v-22.4
			c0-2.83-0.76-5-2.27-6.51c-1.51-1.51-3.58-2.27-6.21-2.27c-2.98,0-5.32,0.92-7.04,2.76c-1.72,1.84-2.57,4.55-2.57,8.14v20.28
			h-8.17V38.65h8.17v4.84C184.77,39.61,188.68,37.67,193.98,37.67z"/>
		<path class="st0" d="M233.33,67.41l10.52-28.76h8.93l-14.76,37.84h-9.46l-14.76-37.84h8.93L233.33,67.41z"/>
		<path class="st0" d="M275.79,77.47c-5.6,0-10.32-1.92-14.15-5.75c-3.89-3.88-5.83-8.6-5.83-14.15s1.94-10.27,5.83-14.15
			c3.83-3.83,8.55-5.75,14.15-5.75s10.32,1.92,14.15,5.75c3.88,3.89,5.83,8.6,5.83,14.15s-1.94,10.27-5.83,14.15
			C286.11,75.56,281.39,77.47,275.79,77.47z M263.98,57.57c0,3.43,1.14,6.28,3.41,8.55c2.27,2.27,5.07,3.41,8.4,3.41
			c3.33,0,6.13-1.14,8.4-3.41c2.27-2.27,3.41-5.12,3.41-8.55c0-3.43-1.14-6.28-3.41-8.55c-2.27-2.27-5.07-3.41-8.4-3.41
			c-3.33,0-6.13,1.14-8.4,3.41C265.12,51.29,263.98,54.14,263.98,57.57z"/>
		<path class="st0" d="M312.42,31.46c-1.01,1.01-2.22,1.51-3.63,1.51c-1.41,0-2.65-0.5-3.71-1.51c-1.01-1.06-1.51-2.3-1.51-3.71
			s0.5-2.62,1.51-3.63c1.01-1.06,2.24-1.59,3.71-1.59c1.46,0,2.7,0.53,3.71,1.59c1.01,1.01,1.51,2.22,1.51,3.63
			S313.48,30.4,312.42,31.46z M312.87,76.49h-8.17V38.65h8.17V76.49z"/>
		<path class="st0" d="M341.71,77.47c-5.7,0-10.47-1.92-14.3-5.75c-3.78-3.88-5.68-8.6-5.68-14.15c0-5.65,1.89-10.37,5.68-14.15
			c3.83-3.83,8.6-5.75,14.3-5.75c3.68,0,7.04,0.88,10.06,2.65c3.03,1.77,5.3,4.14,6.81,7.11l-7.04,4.09
			c-0.86-1.82-2.16-3.24-3.9-4.28c-1.74-1.03-3.74-1.55-6.02-1.55c-3.33,0-6.13,1.14-8.4,3.41c-2.22,2.32-3.33,5.15-3.33,8.48
			c0,3.33,1.11,6.16,3.33,8.48c2.27,2.27,5.07,3.41,8.4,3.41c2.22,0,4.23-0.52,6.02-1.55c1.79-1.03,3.14-2.46,4.05-4.28l7.04,4.01
			c-1.62,3.03-3.95,5.42-7,7.19C348.68,76.59,345.34,77.47,341.71,77.47z"/>
		<path class="st0" d="M402.1,61.05h-30.12c0.6,2.83,1.98,5.02,4.12,6.58c2.14,1.56,4.8,2.35,7.98,2.35c4.29,0,7.54-1.56,9.76-4.69
			l6.73,3.94c-3.68,5.5-9.21,8.25-16.57,8.25c-6.11,0-11.08-1.87-14.91-5.6c-3.78-3.78-5.68-8.55-5.68-14.3
			c0-5.6,1.87-10.32,5.6-14.15c3.68-3.83,8.48-5.75,14.38-5.75c5.5,0,10.04,1.94,13.62,5.83c3.58,3.89,5.37,8.6,5.37,14.15
			C402.4,58.65,402.3,59.79,402.1,61.05z M371.9,54.39h22.25c-0.56-2.98-1.8-5.27-3.75-6.89c-1.94-1.61-4.3-2.42-7.07-2.42
			c-3.03,0-5.55,0.83-7.57,2.5C373.74,49.24,372.46,51.51,371.9,54.39z"/>
		<path class="st0" d="M428.79,57.42h-17.15v-7.87h17.15V57.42z"/>
		<path class="st0" d="M465.95,49.09h26.49v3.63c0,7.27-2.4,13.22-7.19,17.86c-4.74,4.59-11,6.89-18.77,6.89
			c-8.17,0-14.94-2.65-20.28-7.95c-5.3-5.3-7.95-11.81-7.95-19.53c0-7.67,2.65-14.15,7.95-19.45c5.35-5.35,11.96-8.02,19.83-8.02
			c4.89,0,9.4,1.12,13.51,3.37c4.11,2.25,7.3,5.31,9.57,9.19l-7.49,4.32c-1.41-2.57-3.51-4.62-6.28-6.13
			c-2.78-1.51-5.88-2.27-9.31-2.27c-5.55,0-10.12,1.82-13.7,5.45c-3.58,3.68-5.37,8.22-5.37,13.62c0,5.45,1.79,9.97,5.37,13.55
			C456,67.21,460.75,69,466.55,69c4.64,0,8.45-1.08,11.43-3.25c2.98-2.17,4.87-5.12,5.67-8.85h-17.71V49.09z"/>
		<path class="st0" d="M537.92,61.05h-30.12c0.6,2.83,1.98,5.02,4.12,6.58c2.14,1.56,4.8,2.35,7.98,2.35c4.29,0,7.54-1.56,9.76-4.69
			l6.73,3.94c-3.68,5.5-9.21,8.25-16.57,8.25c-6.11,0-11.08-1.87-14.91-5.6c-3.78-3.78-5.68-8.55-5.68-14.3
			c0-5.6,1.87-10.32,5.6-14.15c3.68-3.83,8.48-5.75,14.38-5.75c5.5,0,10.04,1.94,13.62,5.83c3.58,3.89,5.37,8.6,5.37,14.15
			C538.22,58.65,538.11,59.79,537.92,61.05z M507.72,54.39h22.25c-0.56-2.98-1.8-5.27-3.75-6.89c-1.94-1.61-4.3-2.42-7.08-2.42
			c-3.03,0-5.55,0.83-7.57,2.5C509.56,49.24,508.27,51.51,507.72,54.39z"/>
		<path class="st0" d="M566.82,37.67c4.39,0,7.91,1.4,10.56,4.2c2.65,2.8,3.97,6.6,3.97,11.39v23.23h-8.17v-22.4
			c0-2.83-0.76-5-2.27-6.51c-1.51-1.51-3.58-2.27-6.21-2.27c-2.98,0-5.32,0.92-7.04,2.76c-1.72,1.84-2.57,4.55-2.57,8.14v20.28
			h-8.17V38.65h8.17v4.84C557.62,39.61,561.53,37.67,566.82,37.67z"/>
		<path class="st0" d="M628.2,61.05h-30.12c0.6,2.83,1.98,5.02,4.12,6.58c2.14,1.56,4.8,2.35,7.98,2.35c4.29,0,7.54-1.56,9.76-4.69
			l6.73,3.94c-3.68,5.5-9.21,8.25-16.57,8.25c-6.11,0-11.08-1.87-14.91-5.6c-3.78-3.78-5.68-8.55-5.68-14.3
			c0-5.6,1.87-10.32,5.6-14.15c3.68-3.83,8.48-5.75,14.38-5.75c5.5,0,10.04,1.94,13.62,5.83c3.58,3.89,5.37,8.6,5.37,14.15
			C628.5,58.65,628.4,59.79,628.2,61.05z M598,54.39h22.25c-0.56-2.98-1.8-5.27-3.75-6.89c-1.94-1.61-4.3-2.42-7.08-2.42
			c-3.03,0-5.55,0.83-7.57,2.5C599.84,49.24,598.56,51.51,598,54.39z"/>
		<path class="st0" d="M645.38,38.65V45c2.07-4.69,5.95-7.04,11.66-7.04v8.85c-3.08-0.2-5.8,0.56-8.17,2.27
			c-2.32,1.67-3.48,4.44-3.48,8.33v19.07h-8.17V38.65H645.38z"/>
		<path class="st0" d="M692.83,44.02v-5.37H701v37.84h-8.17v-5.45c-3.08,4.29-7.49,6.43-13.24,6.43c-5.2,0-9.64-1.92-13.32-5.75
			s-5.52-8.55-5.52-14.15c0-5.6,1.84-10.32,5.52-14.15c3.68-3.83,8.12-5.75,13.32-5.75C685.34,37.67,689.75,39.78,692.83,44.02z
			 M672.32,66.27c2.27,2.27,5.12,3.4,8.55,3.4s6.28-1.14,8.55-3.4c2.27-2.32,3.41-5.22,3.41-8.7c0-3.48-1.14-6.36-3.41-8.63
			c-2.27-2.32-5.12-3.48-8.55-3.48s-6.28,1.16-8.55,3.48c-2.27,2.27-3.41,5.15-3.41,8.63C668.91,61,670.05,63.9,672.32,66.27z"/>
		<path class="st0" d="M733.17,38.65v7.87h-9.38v18.16c0,1.56,0.35,2.69,1.06,3.37c0.71,0.68,1.75,1.06,3.14,1.14
			c1.39,0.08,3.11,0.06,5.18-0.04v7.34c-6.26,0.76-10.75,0.21-13.47-1.63c-2.72-1.84-4.09-5.23-4.09-10.18V46.52h-6.96v-7.87h6.96
			v-8.17l8.17-2.42v10.6H733.17z"/>
		<path class="st0" d="M758.44,77.47c-5.6,0-10.32-1.92-14.15-5.75c-3.89-3.88-5.83-8.6-5.83-14.15s1.94-10.27,5.83-14.15
			c3.83-3.83,8.55-5.75,14.15-5.75s10.32,1.92,14.15,5.75c3.88,3.89,5.83,8.6,5.83,14.15s-1.94,10.27-5.83,14.15
			C768.76,75.56,764.04,77.47,758.44,77.47z M746.64,57.57c0,3.43,1.14,6.28,3.41,8.55c2.27,2.27,5.07,3.41,8.4,3.41
			s6.13-1.14,8.4-3.41c2.27-2.27,3.41-5.12,3.41-8.55c0-3.43-1.14-6.28-3.41-8.55c-2.27-2.27-5.07-3.41-8.4-3.41
			s-6.13,1.14-8.4,3.41C747.77,51.29,746.64,54.14,746.64,57.57z"/>
		<path class="st0" d="M795.53,38.65V45c2.07-4.69,5.95-7.04,11.66-7.04v8.85c-3.08-0.2-5.8,0.56-8.17,2.27
			c-2.32,1.67-3.48,4.44-3.48,8.33v19.07h-8.17V38.65H795.53z"/>
		<path class="st0" d="M816.91,74.21c0,0.78-0.27,1.43-0.81,1.97c-0.54,0.54-1.2,0.81-1.97,0.81c-0.78,0-1.43-0.27-1.97-0.81
			c-0.54-0.54-0.81-1.2-0.81-1.97c0-0.78,0.27-1.43,0.81-1.97c0.54-0.54,1.2-0.81,1.97-0.81c0.78,0,1.44,0.27,1.97,0.81
			C816.64,72.78,816.91,73.43,816.91,74.21z"/>
		<path class="st0" d="M835.95,77.1c-3.82,0-6.99-1.27-9.52-3.8c-2.53-2.6-3.8-5.75-3.8-9.47c0-3.75,1.27-6.88,3.8-9.42
			c2.53-2.56,5.7-3.85,9.52-3.85c2.5,0,4.74,0.6,6.73,1.8c1.99,1.2,3.44,2.81,4.35,4.83l-2.73,1.57c-0.67-1.52-1.76-2.73-3.26-3.62
			c-1.5-0.89-3.2-1.34-5.09-1.34c-2.8,0-5.16,0.98-7.09,2.94c-1.92,1.92-2.89,4.29-2.89,7.09c0,2.77,0.96,5.15,2.89,7.14
			c1.92,1.92,4.29,2.89,7.09,2.89c1.86,0,3.53-0.44,5.04-1.32c1.5-0.88,2.67-2.09,3.52-3.65l2.78,1.62
			c-1.05,2.03-2.58,3.63-4.61,4.81C840.66,76.5,838.41,77.1,835.95,77.1z"/>
		<path class="st0" d="M874.07,73.3c-2.6,2.53-5.74,3.8-9.42,3.8c-3.75,0-6.9-1.27-9.47-3.8c-2.57-2.57-3.85-5.72-3.85-9.47
			c0-3.75,1.28-6.88,3.85-9.42c2.56-2.56,5.72-3.85,9.47-3.85c3.71,0,6.85,1.28,9.42,3.85c2.6,2.53,3.9,5.67,3.9,9.42
			C877.97,67.55,876.67,70.7,874.07,73.3z M857.57,70.97c1.92,1.92,4.29,2.89,7.09,2.89c2.8,0,5.16-0.96,7.09-2.89
			c1.92-1.99,2.89-4.37,2.89-7.14c0-2.8-0.96-5.16-2.89-7.09c-1.92-1.96-4.29-2.94-7.09-2.94c-2.8,0-5.16,0.98-7.09,2.94
			c-1.92,1.92-2.89,4.29-2.89,7.09C854.68,66.6,855.64,68.98,857.57,70.97z"/>
		<path class="st0" d="M911.53,50.57c2.87,0,5.16,0.91,6.89,2.73c1.72,1.82,2.58,4.29,2.58,7.39v15.8h-3.34v-15.8
			c0-2.16-0.56-3.85-1.67-5.06c-1.11-1.21-2.61-1.82-4.5-1.82c-2.19,0-3.92,0.73-5.16,2.18c-1.25,1.45-1.87,3.61-1.87,6.48v14.02
			h-3.34v-15.8c0-2.19-0.52-3.89-1.57-5.09c-1.05-1.2-2.5-1.8-4.35-1.8c-2.13,0-3.87,0.74-5.24,2.23c-1.37,1.48-2.05,3.63-2.05,6.43
			v14.02h-3.34V51.18h3.34v3.7c1.82-2.87,4.41-4.3,7.75-4.3c3.68,0,6.24,1.54,7.69,4.61C905.15,52.1,907.89,50.57,911.53,50.57z"/>
	</g>
</g>
</svg>
